<svg width="59" height="92" viewBox="0 0 59 92" fill="none" xmlns="http://www.w3.org/2000/svg">
<path d="M51.9175 30.8631C48.9295 30.838 46.3349 32.0813 44.582 33.6859C42.7928 35.338 41.8482 37.3485 41.2398 39.9052C40.6555 42.4311 40.2681 45.0746 39.8847 47.3428C39.5624 49.6138 39.2459 51.5011 40.1861 52.6046C41.0835 53.6687 43.3317 53.9123 46.4468 52.904C49.4955 51.9071 53.4115 49.6586 56.1179 45.9928C58.8835 42.3888 59.5784 38.2806 58.546 35.4327C57.5621 32.5265 54.8509 30.8828 51.9175 30.8631Z" fill="#FF44CB"/>
<path d="M52.1778 32.6049C50.4265 32.2045 49.1003 32.3165 48.3252 32.6808C47.5351 33.0532 47.2914 33.6749 47.3321 34.5373C47.3806 35.3941 47.5622 36.3184 47.6863 37.1053C47.85 37.9034 47.9588 38.5587 48.6763 39.0907C49.3681 39.6033 50.7167 39.9923 52.3835 40.0287C54.0094 40.0651 55.9514 39.7487 56.9669 38.7518C58.0281 37.7884 57.798 36.3604 56.7564 35.1731C55.7335 33.9686 53.8928 32.9999 52.1778 32.6049Z" fill="white"/>
<path d="M0 56.2425V90.44C0 91.3024 0.753775 91.9996 1.68617 91.9996H8.14825C9.0776 91.9996 9.83173 91.3024 9.83173 90.44V56.2425H0Z" fill="#D1D3D4"/>
<path d="M0.762956 56.2679V89.855C0.762956 90.5829 1.40016 91.1711 2.18715 91.1711H7.64563C8.43128 91.1711 9.06847 90.5829 9.06847 89.855V56.2679H0.762956Z" fill="#F47D67"/>
<path d="M9.44261 52.8513H0.389105V56.2679H9.44261V52.8513Z" fill="#D1D3D4"/>
<path d="M9.83173 55.5735H0V55.8955H9.83173V55.5735Z" fill="#D1D3D4"/>
<path d="M9.83173 54.9882H0V55.3102H9.83173V54.9882Z" fill="#D1D3D4"/>
<path d="M9.83173 54.4029H0V54.7221H9.83173V54.4029Z" fill="#D1D3D4"/>
<path d="M9.83173 53.8119H0V54.1339H9.83173V53.8119Z" fill="#D1D3D4"/>
<path d="M9.83173 53.2266H0V53.5457H9.83173V53.2266Z" fill="#D1D3D4"/>
<path d="M5.973 56.2425H3.8584V92H5.973V56.2425Z" fill="white"/>
<path d="M9.83173 56.2425L9.83184 35.8421C9.83184 34.9822 9.07637 34.2825 8.14567 34.2825H1.68665C0.754252 34.2825 0.000435941 34.9825 0.000435941 35.8421L0 56.2425H9.83173Z" fill="#282829"/>
<path d="M3.77977 34.2825H1.81941V56.2426H3.77977V34.2825Z" fill="#58595B"/>
<path d="M5.58558 56.234H4.24578V62.913H5.58558V56.234Z" fill="#414042"/>
<path d="M4.91652 79.0484C5.06497 79.0484 5.21003 79.0904 5.35069 79.1716V62.843H4.48032V79.1634C4.61826 79.0904 4.76366 79.0484 4.91652 79.0484Z" fill="#A7A9AC"/>
<path d="M6.34242 81.0197C6.55425 82.0951 5.70353 82.9967 4.91653 82.9967C4.12953 82.9967 3.26661 82.0922 3.4903 81.0197C3.76585 79.7121 4.26984 79.0484 4.91652 79.0484C5.51439 79.0484 6.09398 79.7344 6.34242 81.0197Z" fill="#282829"/>
<path d="M19.2862 56.2425V90.44C19.2862 91.3024 20.04 91.9996 20.971 91.9996H27.4331C28.3655 91.9996 29.1193 91.3024 29.1193 90.44V56.2425H19.2862Z" fill="#D1D3D4"/>
<path d="M20.0478 56.2679V89.855C20.0478 90.5829 20.685 91.1711 21.4737 91.1711H26.9321C27.7191 91.1711 28.355 90.5829 28.355 89.855V56.2679H20.0478Z" fill="#FF2129"/>
<path d="M28.7271 52.8513H19.6766V56.2679H28.7271V52.8513Z" fill="#D1D3D4"/>
<path d="M29.1193 55.5735H19.2862V55.8955H29.1193V55.5735Z" fill="#D1D3D4"/>
<path d="M29.1193 54.9882H19.2862V55.3102H29.1193V54.9882Z" fill="#D1D3D4"/>
<path d="M29.1193 54.4029H19.2862V54.7221H29.1193V54.4029Z" fill="#D1D3D4"/>
<path d="M29.1193 53.8119H19.2862V54.1339H29.1193V53.8119Z" fill="#D1D3D4"/>
<path d="M29.1193 53.2266H19.2862V53.5457H29.1193V53.2266Z" fill="#D1D3D4"/>
<path d="M25.2609 56.2425H23.1446V92H25.2609V56.2425Z" fill="white"/>
<path d="M29.1193 56.2425V35.8421C29.1193 34.9822 28.3624 34.2824 27.4331 34.2824H20.971C20.04 34.2824 19.2862 34.9825 19.2862 35.8421L19.2862 56.2425H29.1193Z" fill="#282829"/>
<path d="M23.0673 34.2825H21.1073V56.2425H23.0673V34.2825Z" fill="#58595B"/>
<path d="M24.8718 56.234H23.5337V62.913H24.8718V56.234Z" fill="#414042"/>
<path d="M24.2041 79.0484C24.3512 79.0484 24.4963 79.0904 24.6356 79.1716V62.843H23.7669V79.1634C23.9045 79.0904 24.0499 79.0484 24.2041 79.0484Z" fill="#A7A9AC"/>
<path d="M25.6317 81.0197C25.8391 82.0951 24.9928 82.9967 24.2041 82.9967C23.4141 82.9967 22.5528 82.0922 22.7782 81.0197C23.0524 79.7121 23.5564 79.0484 24.2041 79.0484C24.8023 79.0484 25.3788 79.7344 25.6317 81.0197Z" fill="#282829"/>
<path d="M38.5741 56.2425V90.44C38.5741 91.3024 39.3279 91.9997 40.2589 91.9997H46.7227C47.6507 91.9997 48.4045 91.3024 48.4045 90.44V56.2425H38.5741Z" fill="#D1D3D4"/>
<path d="M39.3353 56.268V89.855C39.3353 90.583 39.9725 91.1711 40.7599 91.1711H46.2183C47.004 91.1711 47.6429 90.583 47.6429 89.855V56.268H39.3353Z" fill="#FF44CB"/>
<path d="M48.0137 52.8514H38.9645V56.2679H48.0137V52.8514Z" fill="#D1D3D4"/>
<path d="M48.4042 55.5736H38.5741V55.8955H48.4042V55.5736Z" fill="#D1D3D4"/>
<path d="M48.4042 54.9882H38.5741V55.3102H48.4042V54.9882Z" fill="#D1D3D4"/>
<path d="M48.4042 54.4029H38.5741V54.7221H48.4042V54.4029Z" fill="#D1D3D4"/>
<path d="M48.4042 53.812H38.5741V54.1339H48.4042V53.812Z" fill="#D1D3D4"/>
<path d="M48.4042 53.2266H38.5741V53.5457H48.4042V53.2266Z" fill="#D1D3D4"/>
<path d="M44.5474 56.2425H42.4311V92H44.5474V56.2425Z" fill="white"/>
<path d="M27.5646 15.4139L12.5228 0.493839C11.8887 -0.133484 10.8227 -0.167029 10.1418 0.415463L5.41579 4.4926C4.73454 5.08073 4.69692 6.06639 5.33242 6.69936L20.3728 21.6169L27.5646 15.4139Z" fill="#282829"/>
<path d="M23.1402 19.2308L21.7052 20.4657L5.51441 4.41142L6.94775 3.17088L23.1402 19.2308Z" fill="#58595B"/>
<path d="M24.4672 18.0969L23.4871 18.9404L28.4074 23.8317L29.3875 22.9881L24.4672 18.0969Z" fill="#414042"/>
<path d="M40.7874 35.1925C40.8948 35.1001 41.0327 35.0386 41.1958 35.0107L29.1559 23.0674L28.517 23.6164L40.5542 35.5543C40.5965 35.4136 40.6735 35.2875 40.7874 35.1925Z" fill="#A7A9AC"/>
<path d="M43.2846 35.7359C44.2292 36.3883 44.2746 37.5812 43.6964 38.0771C43.1199 38.5756 41.8238 38.4606 41.1971 37.5367C40.4328 36.4027 40.3118 35.6017 40.7874 35.1925C41.2219 34.8145 42.1539 34.9546 43.2846 35.7359Z" fill="#282829"/>
<path d="M41.8936 38.3037C41.8936 38.3037 41.2669 37.8614 42.098 37.5698C42.9321 37.2786 42.6959 36.7578 42.2509 36.1754C41.8075 35.59 42.2282 35.3101 42.6549 35.3634C42.6549 35.3634 45.1026 36.3769 43.834 38.0909C43.5575 38.4633 43.0046 38.7768 41.8936 38.3037Z" fill="#B64F5E"/>
</svg>
