<svg width="446" height="411" viewBox="0 0 446 411" fill="none" xmlns="http://www.w3.org/2000/svg">
<path d="M374.312 69.5351C375.729 -5.21543 304.804 4.54971 266.495 94.7072C228.186 184.865 97.7742 55.3754 29.742 140.621C-38.2901 225.867 152.788 251.352 134.567 304.189C116.345 357.025 201.415 468.123 347.854 324.499C494.294 180.875 372.681 155.579 374.312 69.5351Z" fill="#EEFCFF"/>
<path d="M417.835 87.4273C433.357 87.4273 445.94 67.856 445.94 43.7136C445.94 19.5713 433.357 0 417.835 0C402.312 0 389.729 19.5713 389.729 43.7136C389.729 67.856 402.312 87.4273 417.835 87.4273Z" fill="#EEFCFF"/>
<path d="M104.511 361.453C124.88 342.804 126.675 313.725 108.522 296.502C90.3682 279.279 59.1397 280.434 38.7708 299.082C18.402 317.73 16.6061 346.81 34.7597 364.033C52.9133 381.256 84.1419 380.101 104.511 361.453Z" fill="#EEFCFF"/>
<path d="M117.892 261.015L113.024 262.08C107.239 263.347 105.338 258.295 103.979 252.904L63.3366 108.78L89.1533 103.128L121.82 249.708C123.178 255.099 123.676 259.748 117.892 261.015Z" fill="#202020"/>
<path d="M89.3431 126.042L74.1121 129.377C69.0708 130.481 63.8904 128.567 61.3415 124.66L52.7781 111.536C50.8823 108.631 52.7587 104.858 56.5075 104.037L93.0004 96.0486C96.7493 95.2278 100.232 97.8273 99.922 101.216L98.5235 116.52C98.1089 121.076 94.3844 124.939 89.3431 126.042Z" fill="#688B7E"/>
<path d="M91.0711 106.209L90.9216 120.163" stroke="#202020" stroke-miterlimit="10" stroke-linecap="round" stroke-linejoin="round"/>
<path d="M93.0822 99.6278L58.5065 107.197C56.6263 107.609 54.6691 106.888 53.5995 105.388L20.2268 58.6244C13.8551 33.3399 97.7858 14.967 104.157 40.2515L96.6121 95.9715C96.3697 97.7584 94.9625 99.216 93.0822 99.6278Z" fill="#B54E34"/>
<path d="M35.6991 38.0093L59.435 83.156" stroke="#E8A278" stroke-miterlimit="10" stroke-linecap="round" stroke-linejoin="round"/>
<path d="M82.0974 102.032L74.4246 54.7033" stroke="#E8A278" stroke-miterlimit="10" stroke-linecap="round" stroke-linejoin="round"/>
<path d="M80.4576 28.2115L86.0419 69.8363" stroke="#E8A278" stroke-miterlimit="10" stroke-linecap="round" stroke-linejoin="round"/>
<path d="M53.8983 44.5508L63.7444 67.5696" stroke="#E8A278" stroke-miterlimit="10" stroke-linecap="round" stroke-linejoin="round"/>
<path d="M104.156 40.2524L96.6111 95.9725C96.3697 97.7584 94.9615 99.216 93.0812 99.6278L58.5056 107.197" stroke="#202020" stroke-miterlimit="10" stroke-linecap="round" stroke-linejoin="round"/>
<path d="M277.417 381.288L250.766 386.042C245.873 386.915 241.147 383.926 240.211 379.366L224.148 301.153L268.518 293.238L284.581 371.451C285.517 376.01 282.311 380.415 277.417 381.288Z" fill="#202020"/>
<path d="M262.934 283.932L225.666 290.581L227.709 300.528L264.977 293.88L262.934 283.932Z" fill="#F4D8C8"/>
<path d="M257.392 284.911L231.188 289.585L219.284 231.622L240.943 204.818L257.392 284.911Z" fill="#FF4E4E"/>
<path d="M233.935 220.517C239.715 213.16 242.808 206.11 240.842 204.769C238.877 203.427 232.597 208.303 226.818 215.659C221.038 223.015 217.319 230.282 219.284 231.623C221.25 232.964 228.155 227.873 233.935 220.517Z" fill="#FF1313"/>
<path d="M259.435 294.858L275.876 374.909" stroke="#F4D8C8" stroke-miterlimit="10" stroke-linecap="round" stroke-linejoin="round"/>
<path d="M240.943 204.818L257.392 284.911" stroke="#202020" stroke-miterlimit="10" stroke-linecap="round" stroke-linejoin="round"/>
<path d="M379.148 378.051C398.31 360.193 398.31 331.238 379.148 313.38C359.987 295.521 328.92 295.521 309.758 313.38C290.596 331.238 290.596 360.193 309.758 378.051C328.92 395.91 359.987 395.91 379.148 378.051Z" fill="#202020"/>
<path d="M346.553 386.243C370.554 385.17 389.078 366.167 387.927 343.798C386.776 321.429 366.386 304.165 342.385 305.237C318.384 306.31 299.86 325.313 301.011 347.682C302.162 370.051 322.551 387.315 346.553 386.243Z" fill="#F4D8C8"/>
<path d="M384.051 346.25C384.374 325.868 366.908 309.1 345.039 308.799C323.17 308.497 305.179 324.775 304.856 345.157C304.532 365.539 321.998 382.306 343.867 382.608C365.736 382.909 383.727 366.631 384.051 346.25Z" fill="#B54E34"/>
<path d="M347.321 381.949C366.876 381.689 382.501 366.703 382.222 348.478C381.942 330.253 365.863 315.691 346.308 315.951C326.753 316.212 311.128 331.197 311.407 349.422C311.687 367.647 327.766 382.21 347.321 381.949Z" fill="#CD9090"/>
<path d="M402.375 270.584C408.662 246.018 392.39 221.353 366.031 215.493C339.672 209.634 313.207 224.799 306.92 249.365C300.633 273.932 316.905 298.597 343.264 304.456C369.623 310.316 396.088 295.151 402.375 270.584Z" fill="#202020"/>
<path d="M354.592 301.443C378.897 301.443 398.6 283.08 398.6 260.428C398.6 237.776 378.897 219.413 354.592 219.413C330.287 219.413 310.584 237.776 310.584 260.428C310.584 283.08 330.287 301.443 354.592 301.443Z" fill="#F4D8C8"/>
<path d="M354.592 298.98C377.437 298.98 395.957 281.719 395.957 260.428C395.957 239.136 377.437 221.876 354.592 221.876C331.747 221.876 313.227 239.136 313.227 260.428C313.227 281.719 331.747 298.98 354.592 298.98Z" fill="#688B7E"/>
<path d="M380.794 286.893C395.389 273.291 395.389 251.238 380.794 237.636C366.2 224.035 342.538 224.035 327.943 237.636C313.349 251.238 313.349 273.291 327.943 286.893C342.538 300.495 366.2 300.495 380.794 286.893Z" fill="#EEFFF8"/>
<path d="M372.459 231.774L340.929 294.769C334.247 292.375 328.559 288.267 324.407 283.078L342.767 229.149C347.683 227.649 353.011 227.082 358.487 227.647C363.549 228.169 368.263 229.611 372.459 231.774Z" fill="white"/>
<path d="M388.208 247.457L356.428 297.046C354.404 297.148 352.343 297.097 350.261 296.882C347.866 296.635 345.551 296.182 343.331 295.546L380.575 237.426C383.725 240.318 386.315 243.715 388.208 247.457Z" fill="white"/>
<path d="M429.414 359.525C431.753 339.843 417.188 322.189 396.881 320.092C376.575 317.996 358.216 332.251 355.877 351.933C353.538 371.614 368.103 389.269 388.41 391.365C408.717 393.462 427.075 379.206 429.414 359.525Z" fill="#CF744E"/>
<path d="M429.175 360.528C432.859 341.798 419.554 323.831 399.458 320.398C379.362 316.964 360.084 329.365 356.401 348.095C352.717 366.825 366.021 384.792 386.118 388.225C406.214 391.658 425.491 379.258 429.175 360.528Z" fill="#E8A278"/>
<path d="M421.652 366.006C428.581 351.149 421.274 333.869 405.332 327.412C389.39 320.954 370.849 327.763 363.921 342.621C356.992 357.478 364.299 374.758 380.241 381.215C396.183 387.673 414.723 380.864 421.652 366.006Z" stroke="#F4D8C8" stroke-miterlimit="10" stroke-linecap="round" stroke-linejoin="round"/>
<path d="M413.39 385.207C396.464 396.444 373.451 392.344 361.99 376.05C350.53 359.756 354.961 337.438 371.887 326.201" stroke="#202020" stroke-miterlimit="10" stroke-linecap="round" stroke-linejoin="round"/>
<path d="M415.374 147.367L393.188 153.544L429.488 266.796C431.319 272.506 434.597 276.636 438.348 275.591C444.475 273.885 447.278 268.063 445.447 262.353L415.374 147.367Z" fill="#506C70"/>
<path d="M445.447 262.354L415.374 147.367" stroke="#202020" stroke-miterlimit="10" stroke-linecap="round" stroke-linejoin="round"/>
<path d="M404.281 150.455L393.187 153.544L431.144 271.966C432.058 274.822 435.284 276.444 438.347 275.592C441.411 274.739 443.152 271.733 442.237 268.878L404.281 150.455Z" fill="#688B7E"/>
<path d="M393.187 153.544L431.144 271.966C432.058 274.822 435.284 276.444 438.347 275.592C441.411 274.739 443.152 271.733 442.237 268.878" stroke="#202020" stroke-miterlimit="10" stroke-linecap="round" stroke-linejoin="round"/>
<path d="M400.182 162.938C420.761 157.209 428.863 125.79 418.278 92.762C407.693 59.7335 382.43 37.6026 361.851 43.3312C341.272 49.0598 333.17 80.4786 343.755 113.507C354.34 146.536 379.603 168.666 400.182 162.938Z" fill="#506C70"/>
<path d="M361.838 43.3182C382.415 37.5894 407.679 59.7183 418.265 92.7462" stroke="#202020" stroke-miterlimit="10" stroke-linecap="round" stroke-linejoin="round"/>
<path d="M390.006 165.77C410.585 160.042 418.687 128.623 408.102 95.5945C397.517 62.566 372.253 40.4351 351.674 46.1637C331.095 51.8923 322.994 83.3111 333.579 116.34C344.164 149.368 369.427 171.499 390.006 165.77Z" fill="#688B7E"/>
<path d="M351.661 46.1518C372.239 40.4229 397.503 62.5519 408.089 95.5797C418.675 128.607 410.575 160.025 389.997 165.754" stroke="#202020" stroke-miterlimit="10" stroke-linecap="round" stroke-linejoin="round"/>
<path d="M381.106 164.552C402.473 158.604 411.7 128.526 401.716 97.3724C391.732 66.2183 366.317 45.7847 344.95 51.7327C323.583 57.6807 314.355 87.7578 324.339 118.912C334.324 150.066 359.739 170.499 381.106 164.552Z" fill="#E8A278"/>
<path d="M387.122 101.416L381.555 101.559C371.41 71.1016 350.773 50.0964 335.075 54.4665C319.156 58.8983 314.346 87.7456 324.331 118.898C334.317 150.051 355.316 171.712 371.235 167.28C380.682 164.65 386.214 153.419 387.065 138.211L392.532 136.689L387.146 136.335C387.435 126.773 385.936 115.775 382.468 104.418L387.122 101.416Z" fill="#F4D8C8"/>
<path d="M335.075 54.4666C319.156 58.8983 314.346 87.7457 324.331 118.898" stroke="#202020" stroke-miterlimit="10" stroke-linecap="round" stroke-linejoin="round"/>
<path d="M385.643 148.459L403.732 138.378" stroke="#F4D8C8" stroke-miterlimit="10" stroke-linecap="round" stroke-linejoin="round"/>
<path d="M385.673 117.682L400.551 113.54" stroke="#F4D8C8" stroke-miterlimit="10" stroke-linecap="round" stroke-linejoin="round"/>
<path d="M370.13 77.3229L391.186 75.5977" stroke="#F4D8C8" stroke-miterlimit="10" stroke-linecap="round" stroke-linejoin="round"/>
<path d="M372.806 81.7574L385.021 76.1029" stroke="#F4D8C8" stroke-miterlimit="10" stroke-linecap="round" stroke-linejoin="round"/>
<path d="M352.859 58.6198L375.996 59.3917" stroke="#F4D8C8" stroke-miterlimit="10" stroke-linecap="round" stroke-linejoin="round"/>
<path d="M344.938 51.721C366.304 45.7726 391.718 66.2045 401.704 97.3575C411.689 128.511 402.463 158.587 381.097 164.535" stroke="#202020" stroke-miterlimit="10" stroke-linecap="round" stroke-linejoin="round"/>
<path d="M204.76 385.737H96.9751V398.934H204.76V385.737Z" fill="#506C70"/>
<path d="M206.929 372.54H94.8068V385.737H206.929V372.54Z" fill="#688B7E"/>
<path d="M95.3994 300.817H206.336L194.1 372.54H107.611L95.3994 300.817Z" fill="#688B7E"/>
<path d="M95.3994 300.817H206.336" stroke="#202020" stroke-miterlimit="10" stroke-linecap="round" stroke-linejoin="round"/>
<path d="M99.5746 304.167H202.161L190.846 372.54H110.867L99.5746 304.167Z" fill="#506C70"/>
<path d="M110.867 372.54L99.5746 304.167H202.161" stroke="#202020" stroke-miterlimit="10" stroke-linecap="round" stroke-linejoin="round"/>
<path d="M105.788 310.887H195.948L186.003 372.54H115.713L105.788 310.887Z" fill="#E3F0FF"/>
<path d="M166.015 310.888L115.747 372.541H115.712L111.862 348.617L151.576 310.888H166.015Z" fill="white"/>
<path d="M195.949 310.888L195.185 315.627L148.78 372.541H122.349L176.455 310.888H195.949Z" fill="white"/>
<path d="M206.929 372.54V385.737H94.8068" stroke="#202020" stroke-miterlimit="10" stroke-linecap="round" stroke-linejoin="round"/>
<path d="M96.9751 393.763H204.76" stroke="#688B7E" stroke-miterlimit="10" stroke-linecap="round" stroke-linejoin="round"/>
<path d="M105.788 310.887H195.948" stroke="#202020" stroke-miterlimit="10" stroke-linecap="round" stroke-linejoin="round"/>
<path d="M104.704 372.54H197.031" stroke="#202020" stroke-miterlimit="10" stroke-linecap="round" stroke-linejoin="round"/>
<path d="M1.33849 286.675C4.24064 265.482 27.0938 221.354 51.7261 224.283C76.3574 227.213 86.5869 275.277 83.6848 296.47C80.7826 317.663 59.9965 332.65 37.2572 329.945C14.5169 327.24 -1.56366 307.868 1.33849 286.675Z" fill="#CF744E"/>
<path d="M51.7251 224.283C76.3564 227.213 86.5859 275.277 83.6838 296.47C80.7816 317.663 59.9956 332.65 37.2562 329.945C14.5169 327.24 -1.56366 307.868 1.33849 286.675" stroke="#202020" stroke-miterlimit="10" stroke-linecap="round" stroke-linejoin="round"/>
<path d="M5.82798 277.673C8.13354 260.836 26.2909 225.776 45.8605 228.104C65.43 230.431 73.5565 268.617 71.2509 285.455C68.9453 302.292 52.4307 314.2 34.3648 312.051C16.2979 309.902 3.52242 294.511 5.82798 277.673Z" fill="#E8A278"/>
<path d="M10.9617 287.819C13.8638 266.627 32.8514 222.039 51.7251 224.283C70.5998 226.528 76.9617 274.132 74.0596 295.325C71.1574 316.518 54.6798 332.017 37.2562 329.945C19.8316 327.872 8.05954 309.012 10.9617 287.819Z" stroke="#202020" stroke-miterlimit="10" stroke-linecap="round" stroke-linejoin="round"/>
<path d="M30.2957 290.12C33.1979 268.927 44.4172 223.414 51.7251 224.284C59.033 225.153 57.6277 271.833 54.7256 293.026C51.8234 314.219 44.0016 330.748 37.2552 329.946C30.5098 329.142 27.3936 311.312 30.2957 290.12Z" stroke="#202020" stroke-miterlimit="10" stroke-linecap="round" stroke-linejoin="round"/>
<path d="M201.429 200.767L142.693 195.988L144.45 32.0963L234.383 39.4125L201.429 200.767Z" fill="#E8A278"/>
<path d="M185.073 199.435L142.693 195.988L144.45 32.0963L228.256 38.9145L185.073 199.435Z" fill="#F4D8C8"/>
<path d="M183.178 167.323L143.036 164.058L144.108 64.0267L205.999 69.0616L183.178 167.323Z" fill="#CF744E"/>
<path d="M205.999 69.0616L183.178 167.323L143.036 164.058" stroke="#202020" stroke-miterlimit="10" stroke-linecap="round" stroke-linejoin="round"/>
<path d="M236.353 18.3362L146.421 11.0164L144.445 32.1025L234.377 39.4223L236.353 18.3362Z" fill="#E8A278"/>
<path d="M201.418 200.772L142.682 195.992L140.007 224.541L198.742 229.321L201.418 200.772Z" fill="#688B7E"/>
<path d="M184.329 207.385L182.4 227.985L140.019 224.537" stroke="#202020" stroke-miterlimit="10" stroke-linecap="round" stroke-linejoin="round"/>
<path d="M142.693 195.988L144.45 32.0963" stroke="#202020" stroke-miterlimit="10" stroke-linecap="round" stroke-linejoin="round"/>
<path d="M144.45 32.0963L234.383 39.4125L236.358 18.3266" stroke="#202020" stroke-miterlimit="10" stroke-linecap="round" stroke-linejoin="round"/>
<path d="M153.17 11.5593L151.541 28.9589" stroke="#202020" stroke-miterlimit="10" stroke-linecap="round" stroke-linejoin="round"/>
<path d="M164.179 12.4545L162.549 29.8541" stroke="#202020" stroke-miterlimit="10" stroke-linecap="round" stroke-linejoin="round"/>
<path d="M175.187 13.3507L173.558 30.7494" stroke="#202020" stroke-miterlimit="10" stroke-linecap="round" stroke-linejoin="round"/>
<path d="M186.196 14.2459L184.566 31.6456" stroke="#202020" stroke-miterlimit="10" stroke-linecap="round" stroke-linejoin="round"/>
<path d="M197.204 15.1411L195.575 32.5408" stroke="#202020" stroke-miterlimit="10" stroke-linecap="round" stroke-linejoin="round"/>
<path d="M208.213 16.0373L206.584 33.4361" stroke="#202020" stroke-miterlimit="10" stroke-linecap="round" stroke-linejoin="round"/>
<path d="M219.222 16.9325L217.592 34.3322" stroke="#202020" stroke-miterlimit="10" stroke-linecap="round" stroke-linejoin="round"/>
<path d="M230.231 17.8287L228.601 35.2274" stroke="#202020" stroke-miterlimit="10" stroke-linecap="round" stroke-linejoin="round"/>
<path d="M205.503 180.822L229.897 61.3818" stroke="#202020" stroke-miterlimit="10" stroke-linecap="round" stroke-linejoin="round"/>
<path d="M293.687 173.567C296.97 148.492 291.868 127.281 282.291 126.192C272.715 125.104 262.291 144.549 259.009 169.624C255.726 194.7 260.828 215.91 270.404 216.999C279.98 218.088 290.404 198.643 293.687 173.567Z" fill="#506C70"/>
<path d="M270.418 216.996C279.994 218.086 290.42 198.64 293.703 173.563C296.987 148.486 291.884 127.275 282.308 126.186" stroke="#202020" stroke-miterlimit="10" stroke-linecap="round" stroke-linejoin="round"/>
<path d="M284.198 172.489C286.582 154.274 282.876 138.868 275.92 138.077C268.964 137.286 261.392 151.41 259.008 169.624C256.624 187.838 260.33 203.245 267.286 204.036C274.242 204.827 281.814 190.703 284.198 172.489Z" fill="#688B7E"/>
<path d="M298.837 10.5406L296.103 10.2295L280.878 126.515C280.416 130.047 283.151 130.358 283.613 126.826L298.837 10.5406Z" fill="#202020"/>
<path d="M302.419 56.8012C304.294 42.4837 304.132 6.01182 298.131 5.32882C292.13 4.64673 282.563 40.012 280.688 54.3296C278.814 68.6471 282.159 80.8068 288.16 81.4898C294.161 82.1728 300.545 71.1188 302.419 56.8012Z" fill="#202020"/>
<path d="M277.632 53.516L289.279 72.9419" stroke="#202020" stroke-miterlimit="10" stroke-linecap="round" stroke-linejoin="round"/>
<path d="M279.501 39.2438L291.147 58.6697" stroke="#202020" stroke-miterlimit="10" stroke-linecap="round" stroke-linejoin="round"/>
<path d="M309.011 37.2737L292.694 53.5196" stroke="#202020" stroke-miterlimit="10" stroke-linecap="round" stroke-linejoin="round"/>
<path d="M304.874 61.3156L289.695 76.4286" stroke="#202020" stroke-miterlimit="10" stroke-linecap="round" stroke-linejoin="round"/>
<path d="M305.71 22.4128L294.562 39.2474" stroke="#202020" stroke-miterlimit="10" stroke-linecap="round" stroke-linejoin="round"/>
<path d="M284.487 25.3253L293.017 44.3975" stroke="#202020" stroke-miterlimit="10" stroke-linecap="round" stroke-linejoin="round"/>
<path d="M290.003 67.4127L284.844 52.6271" stroke="#F4D8C8" stroke-miterlimit="10" stroke-linecap="round" stroke-linejoin="round"/>
<path d="M293.039 44.2216L288.73 35.0233" stroke="#F4D8C8" stroke-miterlimit="10" stroke-linecap="round" stroke-linejoin="round"/>
<path d="M291.192 58.3323L297.748 50.3695" stroke="#F4D8C8" stroke-miterlimit="10" stroke-linecap="round" stroke-linejoin="round"/>
<path d="M288.717 77.2331L296.98 71.2848" stroke="#F4D8C8" stroke-miterlimit="10" stroke-linecap="round" stroke-linejoin="round"/>
<path d="M259.023 169.619C258.589 172.933 266.001 176.501 275.578 177.59C285.154 178.68 293.269 176.876 293.703 173.563" stroke="#202020" stroke-miterlimit="10" stroke-linecap="round" stroke-linejoin="round"/>
</svg>
