<svg width="39" height="78" viewBox="0 0 39 78" fill="none" xmlns="http://www.w3.org/2000/svg">
<path d="M25.139 37.4041H13.4496V41.4166H25.139V37.4041Z" fill="black"/>
<path d="M38.5899 58.7056C38.5899 69.361 29.9509 78 19.2943 78C8.63771 78 0 69.361 0 58.7056C0 48.048 8.63771 39.4113 19.2943 39.4113C29.9509 39.4116 38.5899 48.0483 38.5899 58.7056Z" fill="#282829"/>
<path d="M34.6234 58.7056C34.6234 67.1715 27.7614 74.0324 19.2943 74.0324C10.8295 74.0324 3.96652 67.1717 3.96652 58.7056C3.96652 50.2398 10.8295 43.3768 19.2943 43.3768C27.7614 43.3768 34.6234 50.2398 34.6234 58.7056Z" fill="#A97E7E"/>
<path d="M16.763 71.0404C25.2457 71.0404 32.1236 64.1548 32.1236 55.6598C32.1236 52.6564 31.249 49.8621 29.7632 47.4927C32.7495 50.2983 34.6234 54.2749 34.6234 58.6967C34.6234 67.1962 27.7478 74.0818 19.2631 74.0818C13.779 74.0818 8.97973 71.1955 6.26299 66.8658C9.00993 69.4466 12.6966 71.0404 16.763 71.0404Z" fill="white"/>
<path opacity="0.2" d="M29.1866 50.6805C29.1866 53.7332 24.9223 56.2107 19.662 56.2107C14.4006 56.2107 10.1364 53.7332 10.1364 50.6805C10.1364 47.6301 14.4009 45.1549 19.662 45.1549C24.9221 45.1549 29.1866 47.6301 29.1866 50.6805Z" fill="white"/>
<path d="M38.5899 19.2943C38.5899 29.9519 29.9509 38.5886 19.2943 38.5886C8.63771 38.5886 0 29.9519 0 19.2943C0 8.63672 8.63771 0 19.2943 0C29.9509 0 38.5899 8.63672 38.5899 19.2943Z" fill="#282829"/>
<path d="M35.3348 19.2943C35.3348 28.1515 28.1525 35.3336 19.2943 35.3336C10.4351 35.3336 3.25505 28.1513 3.25505 19.2943C3.25505 10.4351 10.4349 3.25507 19.2943 3.25507C28.1525 3.25507 35.3348 10.4351 35.3348 19.2943Z" fill="#B2E0E3"/>
<g opacity="0.4">
<path d="M17.586 35.2279L26.7487 5.03538C25.9315 4.61283 25.0751 4.25748 24.1847 3.97888L14.8657 34.6795C15.7435 34.938 16.6508 35.1247 17.586 35.2279Z" fill="white"/>
<path d="M13.8027 34.3287L23.1038 3.68669C22.6553 3.58326 22.2023 3.49115 21.7393 3.42596L12.526 33.7871C12.9417 33.9849 13.3675 34.1669 13.8027 34.3287Z" fill="white"/>
</g>
</svg>
